<svg width="25" height="27" viewBox="0 0 25 27" fill="none" xmlns="http://www.w3.org/2000/svg">
<path d="M12.2036 7.07137C8.74026 7.07137 5.9467 10.008 5.9467 13.6487C5.9467 17.2894 8.74026 20.226 12.2036 20.226C15.667 20.226 18.4605 17.2894 18.4605 13.6487C18.4605 10.008 15.667 7.07137 12.2036 7.07137ZM12.2036 17.9248C9.96551 17.9248 8.13581 16.0071 8.13581 13.6487C8.13581 11.2902 9.96006 9.37257 12.2036 9.37257C14.4472 9.37257 16.2714 11.2902 16.2714 13.6487C16.2714 16.0071 14.4417 17.9248 12.2036 17.9248ZM20.1759 6.80233C20.1759 7.65526 19.5224 8.33646 18.7165 8.33646C17.9051 8.33646 17.2571 7.64953 17.2571 6.80233C17.2571 5.95512 17.9105 5.26819 18.7165 5.26819C19.5224 5.26819 20.1759 5.95512 20.1759 6.80233ZM24.3199 8.35936C24.2274 6.3043 23.7808 4.48395 22.3487 2.98416C20.9219 1.48437 19.1902 1.01498 17.2353 0.911936C15.2204 0.791724 9.18135 0.791724 7.1665 0.911936C5.217 1.00925 3.48532 1.47865 2.05314 2.97844C0.620969 4.47823 0.179881 6.29858 0.0818609 8.35363C-0.0324953 10.4717 -0.0324953 16.82 0.0818609 18.938C0.174435 20.9931 0.620969 22.8134 2.05314 24.3132C3.48532 25.813 5.21155 26.2824 7.1665 26.3854C9.18135 26.5056 15.2204 26.5056 17.2353 26.3854C19.1902 26.2881 20.9219 25.8187 22.3487 24.3132C23.7754 22.8134 24.2219 20.9931 24.3199 18.938C24.4343 16.82 24.4343 10.4774 24.3199 8.35936ZM21.717 21.2106C21.2922 22.3326 20.4699 23.197 19.3972 23.6492C17.7907 24.3189 13.9789 24.1644 12.2036 24.1644C10.4284 24.1644 6.61106 24.3132 5.01007 23.6492C3.94274 23.2027 3.12047 22.3383 2.69027 21.2106C2.05314 19.5219 2.20017 15.5148 2.20017 13.6487C2.20017 11.7825 2.05859 7.76975 2.69027 6.08678C3.11502 4.9648 3.9373 4.10042 5.01007 3.64819C6.6165 2.97844 10.4284 3.133 12.2036 3.133C13.9789 3.133 17.7962 2.98416 19.3972 3.64819C20.4645 4.09469 21.2868 4.95907 21.717 6.08678C22.3541 7.77547 22.2071 11.7825 22.2071 13.6487C22.2071 15.5148 22.3541 19.5276 21.717 21.2106Z" fill="white"/>
</svg>
